<svg width="28" height="28" viewBox="0 0 28 28" fill="none" xmlns="http://www.w3.org/2000/svg">
<path d="M27 25.2V5.6C27 4.0558 25.7043 2.8 24.1111 2.8H21.2222V0H18.3333V2.8H9.66667V0H6.77778V2.8H3.88889C2.29567 2.8 1 4.0558 1 5.6V25.2C1 26.7442 2.29567 28 3.88889 28H24.1111C25.7043 28 27 26.7442 27 25.2ZM9.66667 22.4H6.77778V19.6H9.66667V22.4ZM9.66667 16.8H6.77778V14H9.66667V16.8ZM15.4444 22.4H12.5556V19.6H15.4444V22.4ZM15.4444 16.8H12.5556V14H15.4444V16.8ZM21.2222 22.4H18.3333V19.6H21.2222V22.4ZM21.2222 16.8H18.3333V14H21.2222V16.8ZM24.1111 9.8H3.88889V7H24.1111V9.8Z" fill="#FFFAEE"/>
</svg>
